

<svg width="258" height="241" viewBox="0 0 258 241" fill="none" xmlns="http://www.w3.org/2000/svg">
<path fill-rule="evenodd" clip-rule="evenodd" d="M1.04906 18.875L1.03106 37.749L4.44806 41.09C7.91306 44.479 14.9121 46.867 21.6431 46.958C26.0891 47.018 26.8871 44.299 23.2881 41.354C18.6481 37.556 22.7751 38.721 33.0001 44.094C40.5241 48.049 41.7721 48.988 39.0001 48.611C37.0751 48.35 36.0631 48.367 36.7501 48.651C38.5991 49.414 38.2661 50.996 36.2501 51.026C35.2881 51.04 37.8031 52.176 41.8411 53.552C50.6541 56.554 57.0001 59.68 57.0001 61.02C57.0001 61.559 57.9001 62 59.0001 62C60.1001 62 61.0001 61.587 61.0001 61.083C61.0001 60.579 62.7961 61.141 64.9921 62.333C67.1871 63.525 68.9871 64.8 68.9921 65.167C69.0211 67.57 48.3041 68.828 40.0461 66.925C36.8671 66.192 34.2041 66.231 30.7421 67.062C25.1281 68.409 23.6221 67.786 27.5361 65.735L30.2491 64.314L27.3751 62.309C25.7941 61.207 20.6551 58.225 15.9561 55.684C8.84206 51.836 6.91706 51.195 4.45606 51.853L1.50006 52.643L1.23606 83.322C1.00406 110.171 1.16006 114 2.48606 114C4.25506 114 4.41506 115.357 2.96506 118.066C2.33606 119.24 2.30506 120 2.88506 120C3.41106 120 4.13806 118.65 4.50006 117C4.87206 115.308 5.80706 114 6.64506 114C9.26906 114 12.1771 116.096 11.6091 117.577C11.2891 118.41 11.6721 119 12.5311 119C13.3391 119 14.0001 119.434 14.0001 119.964C14.0001 121.113 7.03006 126 5.39006 126C4.76006 126 3.68506 126.675 3.00006 127.5C2.14006 128.536 2.10206 129 2.87806 129C3.49506 129 4.00206 128.662 4.00406 128.25C4.01006 127.058 12.8071 123.763 14.0051 124.503C14.6001 124.871 15.7191 124.648 16.4911 124.007C17.3201 123.32 18.5021 123.182 19.3751 123.671C20.6261 124.372 20.4721 125.116 18.3751 128.5C17.0121 130.7 15.9911 131.825 16.1061 131C16.4571 128.485 14.8891 126 12.9521 126C10.6191 126 9.87606 127.191 11.0511 129.048C11.6811 130.044 11.9741 130.108 11.9851 129.25C11.9931 128.563 12.6791 128 13.5081 128C14.7501 128 14.8031 128.343 13.8081 129.935C13.1441 131 12.2401 131.648 11.8001 131.376C11.3601 131.104 10.9931 131.471 10.9851 132.191C10.9731 133.197 10.7631 133.174 10.0771 132.091C9.58706 131.316 9.44006 130.017 9.75206 129.204C10.1231 128.238 9.83106 127.89 8.90906 128.197C7.26606 128.745 6.97506 130.961 8.31106 132.75C8.82506 133.438 8.85206 133.993 8.37206 133.985C7.12606 133.963 4.81406 132.394 4.91506 131.638C5.12406 130.073 4.88306 129.992 3.00006 131C1.27006 131.926 1.00006 133.094 1.00006 139.642C1.00006 146.465 1.17306 147.142 2.75006 146.484C6.09906 145.087 13.5141 143.942 15.7211 144.481C16.9431 144.779 18.3611 145.806 18.8721 146.762C19.7101 148.328 19.1431 148.51 13.1511 148.603C9.49306 148.66 5.24206 149.219 3.70506 149.846L0.909058 150.985L1.20506 178.242L1.50006 205.5L8.33306 213.5L15.1671 221.5L10.8331 222.241C8.18206 222.695 6.37106 222.598 6.16706 221.991C5.98306 221.446 4.74606 221 3.41706 221C1.61506 221 1.00006 221.544 1.00006 223.136C1.00006 225.406 1.49106 225.418 13.0191 223.422C16.2591 222.861 16.9691 223.236 21.9571 228.146C26.7481 232.863 27.9611 233.539 32.4371 233.99C36.7401 234.423 37.5481 234.838 37.8201 236.75C38.0341 238.263 37.6251 239 36.5701 239C35.7061 239 35.0001 239.45 35.0001 240C35.0001 240.588 38.5001 241 43.5001 241C48.1751 241 52.0001 240.631 52.0001 240.181C52.0001 239.73 50.2501 239.372 48.1111 239.384C45.3191 239.401 43.1341 238.574 40.3611 236.454L36.5001 233.5L39.2671 233.182C40.7891 233.007 41.7751 232.445 41.4581 231.932C40.8721 230.984 41.1031 230.918 46.6581 230.448C48.3951 230.301 51.5451 229.363 53.6581 228.362C58.8251 225.916 67.9441 220.674 65.7501 221.412C64.7881 221.735 63.2121 222.263 62.2501 222.584C61.0021 223 61.1781 222.569 62.8611 221.084C64.1741 219.924 64.6461 219 63.9251 219C63.2121 219 61.6081 219.959 60.3611 221.13C58.2911 223.075 57.6921 223.16 53.4951 222.103C50.9661 221.466 48.5111 221.184 48.0391 221.476C46.9101 222.174 44.0001 221.033 44.0001 219.893C44.0001 219.402 44.6751 219 45.5001 219C46.3251 219 47.0051 218.662 47.0111 218.25C47.0381 216.52 54.8871 213.755 57.6791 214.493C63.6371 216.069 68.6091 215.829 74.4911 213.683C80.8621 211.36 81.6721 210.364 85.6271 200C88.9231 191.363 89.4671 191.332 106.554 198.799C115.096 202.532 117.499 204.01 117.513 205.54C117.523 206.618 117.177 208.008 116.744 208.628C116.311 209.249 116.363 210.824 116.859 212.128C117.355 213.433 117.702 214.726 117.63 215.002C117.559 215.279 119.036 216.973 120.914 218.768C123.15 220.904 124.945 221.835 126.113 221.464C127.114 221.146 128.798 221.689 129.949 222.699C131.077 223.689 132.816 225.203 133.813 226.063C134.809 226.922 136.195 227.435 136.892 227.203C137.588 226.971 138.85 227.768 139.695 228.975C140.732 230.455 141.561 230.839 142.244 230.156C142.928 229.472 143.875 229.526 145.159 230.322C146.404 231.093 147.31 231.155 147.781 230.5C148.888 228.961 151.231 228.755 152.076 230.123C152.494 230.799 153.8 231.499 154.979 231.679C156.157 231.859 156.89 231.631 156.607 231.174C155.982 230.162 159.053 230.297 160.768 231.356C161.463 231.786 162 231.631 162 231C162 230.385 162.45 230.16 163 230.5C163.55 230.84 164 230.431 164 229.59C164 228.643 164.57 228.282 165.5 228.638C166.325 228.955 167 228.716 167 228.107C167 227.498 168.088 227 169.418 227C172.946 227 175 225.996 175 224.271C175 223.037 175.279 222.987 176.5 224C177.729 225.02 178 224.951 178 223.622C178 222.73 177.523 222 176.941 222C176.359 222 176.136 221.588 176.447 221.085C176.758 220.582 176.447 219.943 175.756 219.664C174.998 219.359 175.194 219.127 176.25 219.079C177.213 219.036 178 219.548 178 220.218C178 221.636 181.827 225.131 187.472 228.87C189.657 230.316 192.245 232.288 193.222 233.25C195.398 235.392 197.88 235.443 205.35 233.497C209.403 232.442 211.678 232.293 212.994 232.997C214.025 233.549 216.69 234 218.916 234C221.142 234 226.009 234.516 229.731 235.147C236.125 236.231 236.864 236.148 243.078 233.647C250.319 230.734 252.998 230.398 254.783 232.183C255.434 232.834 256.299 233.035 256.704 232.629C257.11 232.223 256.78 231.473 255.971 230.961C254.975 230.331 254.903 230.026 255.75 230.015C256.712 230.004 257 224.913 257 207.941C257 194.581 256.633 186.109 256.069 186.457C255.557 186.774 254.808 186.498 254.404 185.845C253.913 185.05 253.398 185.396 252.844 186.893C252.389 188.123 251.563 188.848 251.008 188.505C249.586 187.626 249.753 184.266 251.25 183.662C252.035 183.345 252.081 183.129 251.372 183.079C250.752 183.036 249.685 183.675 249 184.5C245.937 188.19 244.894 184.662 247.733 180.215C249.396 177.609 249.393 177.558 247.662 178.932C246.669 179.719 245.214 181.744 244.428 183.432L242.999 186.5L243.483 182.5C243.865 179.343 243.767 178.974 243.016 180.75C241.814 183.592 239.571 183.749 240.306 180.939C240.951 178.473 238.242 177.007 236.914 179.104C236.428 179.872 236.024 182.412 236.015 184.75C236.007 187.088 235.58 189 235.067 189C233.657 189 232.837 185.496 233.568 182.585C233.999 180.867 233.809 180 233.001 180C232.332 180 232.045 179.326 232.362 178.5C232.715 177.579 232.36 177 231.444 177C229.736 177 228 180.899 228 184.732C228 186.163 227.702 187.035 227.338 186.671C226.973 186.307 226.753 183.947 226.849 181.427C227.055 175.971 226.37 174.448 224.432 176.056C223.395 176.917 223.307 177.706 224.086 179.16C224.66 180.233 224.911 181.648 224.644 182.305C224.367 182.985 224.124 182.781 224.079 181.833C224.036 180.917 223.62 180.017 223.155 179.833C222.691 179.65 221.678 178.183 220.905 176.574C219.484 173.614 217 171.924 217 173.917C217 174.512 217.675 175 218.5 175C220.464 175 220.404 175.984 218.347 177.488C217.363 178.208 217.009 179.206 217.472 179.955C218 180.81 218.462 180.871 218.909 180.147C219.315 179.491 220.071 179.884 220.872 181.166C222.097 183.128 221.998 183.227 219.21 182.818C216.326 182.394 216.244 182.499 216.159 186.691C216.112 189.061 216.507 191 217.036 191C218.894 191 217.983 194.771 216 195.29C214.685 195.634 214 195.32 214 194.375C214 193.584 213.312 192.673 212.47 192.35C211.463 191.964 211.158 191.078 211.577 189.756C212.029 188.333 211.861 187.968 211 188.5C210.128 189.039 209.976 188.651 210.46 187.125C210.965 185.535 210.713 185 209.459 185C207.777 185 207.837 186.807 209.679 191.606C210.275 193.16 209.958 193.106 207.279 191.199C205.581 189.989 203.72 189 203.144 189C201.491 189 188.956 173.642 189.473 172.25C189.728 171.563 189.452 171 188.858 171C187.571 171 179 162.482 179 161.202C179 160.711 179.855 159.536 180.9 158.59C183.341 156.381 184.154 153.273 182.462 152.624C181.737 152.346 180.999 150.854 180.822 149.309C180.568 147.096 179.924 146.434 177.786 146.187C173.574 145.701 166.346 150.421 164.985 154.546C163.832 158.038 164.438 161.967 166.314 163.17C168.12 164.328 167.846 166.586 165.882 166.734C164.358 166.849 164 166.183 164 163.236V159.597L159.963 163.799C157.742 166.109 155.492 168 154.963 168C154.433 168 154 168.416 154 168.923C154 169.431 155.39 169.153 157.09 168.305C160.021 166.843 160.458 166.905 165.59 169.501C170.858 172.167 172.476 174 169.559 174C168.766 174 167.866 174.408 167.558 174.907C167.249 175.406 168.573 175.33 170.499 174.739C174.245 173.589 174.911 172.564 172.51 171.642C171.318 171.185 171.542 170.549 173.633 168.458C177.119 164.972 180.61 165.743 181.806 170.263C182.722 173.724 181.795 174.904 179.593 173.077C178.856 172.466 177.497 172.256 176.572 172.611C175.187 173.142 175.438 173.588 177.995 175.143C179.702 176.181 180.857 177.422 180.562 177.9C180.267 178.378 176.982 179.334 173.262 180.026C169.543 180.717 165.375 181.738 164 182.295C159.999 183.916 149.731 184.568 145 183.502C143.079 183.07 142.848 183.178 144 183.97C145.333 184.886 145.333 185.109 144 185.985C143.175 186.526 141.736 186.976 140.803 186.985C138.974 187.001 130.576 182.796 128.047 180.598C127.196 179.858 124.849 178.723 122.832 178.076C118.474 176.678 115.583 172.797 116.419 169.467C116.743 168.178 116.544 166.836 115.977 166.486C115.411 166.136 115.012 165.321 115.092 164.675C115.38 162.343 114.981 161 114 161C113.45 161 113.053 161.338 113.118 161.75C113.787 165.982 111.633 165.344 109.482 160.673C108.678 158.928 108.259 158.475 108.551 159.666C109.204 162.334 107.459 163.643 106.215 161.419C105.311 159.804 100.864 159.819 96.8791 161.451C95.9331 161.838 94.5591 161.416 93.5821 160.439C92.0661 158.923 92.0531 158.598 93.4531 157.052C95.6501 154.624 95.3981 149.67 92.9651 147.468C91.8451 146.455 91.1561 145.035 91.4331 144.313C91.7101 143.591 91.6141 142.966 91.2191 142.923C88.3451 142.618 86.5991 141.97 85.9891 140.983C85.4961 140.185 85.0921 140.318 84.6711 141.416C84.3361 142.287 83.3471 143 82.4721 143C81.5981 143 81.0911 143.338 81.3461 143.75C81.6011 144.163 80.7491 145.831 79.4531 147.457C77.4391 149.983 77.0011 150.165 76.4431 148.712C76.0841 147.777 75.3401 147.29 74.7881 147.631C74.1541 148.023 74.2281 148.523 74.9911 148.994C75.6531 149.404 76.2581 151.035 76.3351 152.619C76.4121 154.204 76.9311 155.831 77.4881 156.235C78.0821 156.666 77.8491 156.976 76.9231 156.985C75.7261 156.996 75.4571 157.757 75.8081 160.142C76.1411 162.417 75.9371 163.079 75.0661 162.541C74.4051 162.132 74.1441 161.066 74.4871 160.172C74.9101 159.07 74.3221 159.288 72.6611 160.849C70.3341 163.035 68.0101 162.411 69.5001 160C70.3801 158.577 68.6441 158.76 67.1291 160.25C66.1051 161.258 65.9901 160.967 66.5381 158.75C67.0551 156.655 66.8531 156 65.6921 156C64.8531 156 63.9401 156.562 63.6621 157.25C63.3851 157.938 63.1221 157.53 63.0791 156.344C63.0191 154.694 62.5301 154.31 61.0001 154.71C59.3441 155.143 58.9991 154.74 58.9951 152.367L58.9901 149.5L56.5311 152.5C55.1791 154.15 54.0561 154.952 54.0361 154.281C54.0161 153.6 53.3211 153.323 52.4591 153.654C51.5091 154.019 51.0301 153.753 51.2091 152.961C51.3691 152.255 50.3751 151.392 49.0001 151.043C47.6251 150.695 46.4931 149.98 46.4851 149.455C46.4761 148.93 46.2171 148.05 45.9081 147.5C44.9111 145.723 44.9341 138.544 45.9421 137.005C46.7851 135.717 47.1451 135.787 48.5351 137.505C49.4221 138.602 49.8231 138.872 49.4261 138.105C48.8701 137.033 49.3111 136.826 51.3351 137.213C53.7401 137.673 53.9141 137.492 53.3541 135.108C52.8511 132.966 52.9791 132.723 54.0711 133.75C56.6221 136.149 57.3291 134.979 54.9241 132.339C53.5911 130.875 53.1331 130.045 53.9081 130.495C54.9891 131.123 55.1841 130.813 54.7511 129.156C54.4411 127.97 54.6221 127 55.1531 127C55.6841 127 55.8611 126.584 55.5461 126.075C54.8531 124.952 56.9841 120 58.1611 120C58.6221 120 59.0001 119.325 59.0001 118.5C59.0001 117.675 59.3371 117.053 59.7501 117.118C61.7171 117.429 63.0871 116.823 64.9611 114.811C66.0821 113.608 67.0071 113.045 67.0151 113.561C67.0241 114.078 67.4671 113.825 68.0001 113C68.8281 111.718 68.9721 111.754 68.9851 113.25C68.9941 114.263 69.7581 115 70.8001 115C73.1461 115 74.9711 116.881 75.1161 119.45C75.2111 121.137 75.3131 121.19 75.6891 119.75C76.2221 117.712 77.6101 117.45 78.3411 119.25C78.7221 120.191 79.1101 120.129 79.9091 119C80.8521 117.667 80.9731 117.667 81.0001 119C81.0181 119.883 81.3331 120.089 81.7651 119.5C83.1221 117.654 89.8901 115.014 90.5461 116.075C90.8881 116.628 92.0301 116.808 93.0841 116.473C94.2841 116.092 95.0001 116.339 95.0001 117.133C95.0001 118.069 95.2931 118.107 96.1221 117.278C97.5061 115.894 100 116.728 100 118.576C100 119.375 100.619 119.7 101.5 119.362C102.541 118.962 103 119.431 103 120.893C103 122.052 103.506 122.887 104.125 122.75C104.744 122.612 105.477 123.125 105.755 123.889C106.064 124.74 105.822 125.008 105.13 124.58C104.508 124.196 104 124.359 104 124.941C104 126.893 106.76 126.026 107.316 123.899C107.621 122.735 108.344 122.094 108.939 122.462C109.529 122.827 111.809 123.15 114.006 123.181C116.271 123.212 118.007 123.726 118.015 124.368C118.024 125.029 118.394 124.927 118.904 124.122C119.925 122.508 122 123.471 122 125.559C122 126.352 122.563 127 123.25 127C123.938 127 124.5 128.125 124.5 129.5C124.5 130.893 123.921 132 123.191 132C122.471 132 122.183 132.486 122.55 133.081C122.918 133.676 124.294 133.892 125.609 133.562C127.539 133.078 128 133.351 128 134.981C128 136.12 128.662 137 129.519 137C130.639 137 130.874 137.655 130.413 139.491C129.633 142.6 132.692 144.301 134.205 141.599C134.958 140.252 135.463 140.139 136.581 141.067C137.731 142.021 138 141.842 138 140.122C138 138.544 138.62 138 140.418 138C144.353 138 146 136.936 146 134.393C146 133.077 146.45 132 147 132C147.55 132 148 131.1 148 130C148 126.93 150.82 127.594 151.184 130.75C151.438 132.957 151.944 133.438 153.75 133.187C155.359 132.963 156.013 133.391 156.045 134.687C156.075 135.883 156.519 135.496 157.349 133.55L158.607 130.601L160.199 132.874C161.182 134.277 162.045 134.736 162.455 134.073C163.545 132.309 165.179 132.86 164.568 134.786C164.182 136.003 164.558 136.632 165.751 136.763C166.713 136.868 169.188 137.239 171.25 137.587C174.23 138.089 175 137.903 175 136.683C175 133.62 181.957 134.694 184.049 138.08C184.877 139.419 188 134.256 188 131.55C188 129.713 190.937 129.433 191.139 131.25C191.215 131.938 191.203 133.929 191.112 135.675C190.929 139.203 192.402 140.742 194.386 139.095C196.009 137.747 197.031 138.665 196.338 140.848C196.04 141.788 196.689 141.426 197.845 140.007C199.612 137.837 199.96 137.731 200.521 139.193C200.921 140.237 201.797 140.649 202.833 140.282C206.225 139.077 206.858 137.991 205.972 134.901C205.22 132.281 205.419 131.766 207.556 130.792C208.9 130.18 210 129.271 210 128.772C210 128.273 210.847 128.134 211.882 128.462C213.042 128.831 213.977 128.503 214.32 127.607C215.169 125.396 218.737 126.818 219.449 129.651C219.936 131.592 220.504 131.975 222.133 131.458C226.215 130.162 229.464 130.252 230.515 131.689C231.181 132.601 234.018 133.341 238.042 133.654C242.764 134.021 244.097 133.87 243 133.093C242.175 132.509 240.15 132.014 238.5 131.993C234.93 131.949 227 128.54 227 127.049C227 125.562 227.816 125.736 230.846 127.869C234.382 130.359 237.688 131.314 238.457 130.069C238.802 129.512 236.795 127.413 233.999 125.404C231.203 123.395 229.151 121.516 229.439 121.227C229.888 120.779 235.114 123.889 239.905 127.455C241.008 128.276 240.973 127.849 239.74 125.465C238.877 123.795 237.031 121.819 235.638 121.074C233.146 119.74 231.475 117.192 232.451 116.215C232.726 115.941 233.753 116.708 234.734 117.92C237.426 121.244 240 119.765 240 114.893C240 111.984 240.406 111 241.607 111C242.749 111 243.003 111.507 242.485 112.75C239.94 118.856 242.689 129.44 247.666 132.701C250.712 134.696 252.133 133.482 249.176 131.411C247.965 130.562 246.15 128.21 245.144 126.184C243.494 122.859 243.44 121.866 244.596 116C245.3 112.425 245.904 107.722 245.938 105.55C245.979 102.936 246.336 101.936 246.993 102.593C247.649 103.249 247.578 106.378 246.782 111.841C245.815 118.474 245.831 120.5 246.863 122.153C247.755 123.58 247.786 123.986 246.967 123.479C244.908 122.207 246.965 127.319 249.337 129.372C251.468 131.216 251.505 131.209 251.845 128.928C252.039 127.624 251.493 126.103 250.595 125.446C249.484 124.633 249 122.679 249 119.005V113.73L251.139 116.449C253.628 119.613 254.96 118.526 254.985 113.309C254.993 111.554 255.45 109.84 256 109.5C256.55 109.16 257 105.856 257 102.157C257 95.78 256.848 95.342 254.069 93.7C252.216 92.605 250.907 92.342 250.51 92.984C249.478 94.653 248 94.136 248 92.106C248 90.828 247.268 90.19 245.75 90.145C240.786 89.998 239.452 89.573 237.095 87.387C235.742 86.133 234.265 85.336 233.811 85.617C233.357 85.897 232.687 85.311 232.323 84.313C231.493 82.043 227 76.519 227 77.768C227 78.275 227.9 79.505 229 80.5C230.1 81.495 231 82.76 231 83.31C231 83.86 230.1 83.495 229 82.5C227.9 81.505 227 81.15 227 81.711C227 82.345 224.929 82.156 221.536 81.212C218.531 80.375 216.289 79.342 216.553 78.915C216.817 78.488 216.575 77.856 216.016 77.51C214.541 76.598 214.766 74.75 216.25 75.588C217.25 76.152 217.25 76.024 216.25 74.947C214.579 73.147 214.665 71.934 216.415 72.606C217.542 73.038 217.719 72.321 217.283 69.074C216.923 66.387 217.122 65 217.868 65C218.491 65 219 66.2 219 67.667C219 70.854 220.076 70.043 221.637 65.678C222.939 62.037 223.461 62.887 224.597 70.5L225.343 75.5L226.313 71.25C227.331 66.796 228.537 65.79 229.311 68.75C229.655 70.067 229.797 69.943 229.884 68.25C229.953 66.915 230.643 66 231.579 66C232.813 66 233.033 65.288 232.582 62.75C232.199 60.593 232.282 60.148 232.828 61.427C233.64 63.329 233.66 63.329 234.432 61.427C235.198 59.542 235.233 59.544 236.037 61.5L236.859 63.5L237.061 61.5C237.179 60.336 237.565 60.963 237.985 63L238.707 66.5L239.475 63.266C239.898 61.488 240.612 60.26 241.062 60.538C241.512 60.816 241.226 62.609 240.426 64.522C238.823 68.359 239.362 68.887 242.232 66.29C243.863 64.814 244.249 64.78 245.046 66.04C245.774 67.191 245.973 67.213 245.985 66.143C245.993 65.377 246.626 65.026 247.435 65.337C248.225 65.64 249.089 65.35 249.356 64.694C249.624 64.037 249.918 65.3 250.011 67.5L250.18 71.5L251.119 68.25C252.436 63.688 253.496 64.214 253.525 69.445C253.55 73.965 254.401 75.931 255.75 74.585C256.162 74.173 256.638 57.969 256.808 38.576L257.115 3.316L239.808 2.675C230.288 2.322 205.175 2.531 184 3.14C156.44 3.933 139.675 3.945 125 3.182C110.66 2.436 96.3871 2.427 77.5001 3.151C48.4291 4.265 33.2841 3.811 23.0001 1.519C19.4251 0.721999 13.0281 0.0539998 8.78306 0.0349998L1.06706 0L1.04906 18.875ZM120.599 5.673C132.022 6.646 125.97 7.585 111.5 7.086C103.274 6.802 100.601 6.45 103 5.967C107.972 4.967 111.599 4.906 120.599 5.673ZM228 6C229.723 6.552 228.17 6.801 223 6.801C217.83 6.801 216.277 6.552 218 6C219.375 5.56 221.625 5.199 223 5.199C224.375 5.199 226.625 5.56 228 6ZM69.0001 7C70.0261 7.663 67.6581 7.952 61.5001 7.914C55.5531 7.878 53.1781 7.568 54.5001 7C57.2551 5.816 67.1681 5.816 69.0001 7ZM200.053 9.567L204.5 11.039L197.418 10.528C187.999 9.849 183.902 8.967 184.637 7.778C185.388 6.563 193.994 7.561 200.053 9.567ZM157.5 11C159.597 11.534 157.941 11.778 152 11.811C146.414 11.843 144.186 11.565 145.5 11C147.92 9.96 153.414 9.96 157.5 11ZM23.0001 12C23.0001 13.147 19.6641 13.162 12.5001 12.046C7.65406 11.291 7.73906 11.263 15.2501 11.134C19.8391 11.054 23.0001 11.408 23.0001 12ZM42.5001 11.943C47.1851 12.912 44.9231 13.322 36.5001 13.032C29.1381 12.778 26.4441 10.975 33.5501 11.058C36.2731 11.089 40.3001 11.488 42.5001 11.943ZM97.0001 12.522L101.5 14.014L94.5701 13.408C90.7581 13.075 86.7081 12.425 85.5701 11.964C81.7401 10.415 92.1791 10.924 97.0001 12.522ZM169.25 12.662C168.563 12.94 167.438 12.94 166.75 12.662C166.063 12.385 166.625 12.158 168 12.158C169.375 12.158 169.938 12.385 169.25 12.662ZM247.844 14.623L252.5 15.991L246.941 15.509C243.883 15.244 239.608 14.355 237.441 13.533L233.5 12.039L238.344 12.647C241.009 12.982 245.284 13.871 247.844 14.623ZM83.5001 16.867C86.3351 17.399 84.1491 17.635 76.0001 17.674C68.7431 17.709 65.7911 17.459 68.0001 16.997C72.7221 16.007 78.6601 15.958 83.5001 16.867ZM115.75 16.909C112.588 17.247 107.412 17.247 104.25 16.909C100.034 16.458 101.567 16.294 110 16.294C118.433 16.294 119.966 16.458 115.75 16.909ZM174.25 16.706C173.012 16.944 170.988 16.944 169.75 16.706C168.512 16.467 169.525 16.272 172 16.272C174.475 16.272 175.488 16.467 174.25 16.706ZM18.0001 19C19.0471 19.676 17.3841 19.969 12.5001 19.969C8.65006 19.969 4.82506 19.533 4.00006 19C2.95306 18.324 4.61606 18.031 9.50006 18.031C13.3501 18.031 17.1751 18.467 18.0001 19ZM57.5821 22.107C54.1701 22.605 50.3591 22.591 48.5821 22.075C46.2241 21.391 47.6141 21.188 54.5001 21.212L63.5001 21.244L57.5821 22.107ZM182.5 42.963C197.157 44.098 202.864 44.972 203.62 46.194C204.63 47.829 201.129 50.644 194.004 53.929C185.613 57.796 176.21 59.438 169.42 58.222L164.5 57.341L168.274 55.474C171.266 53.994 171.729 53.428 170.51 52.746C169.517 52.19 165.933 52.875 160.395 54.678C151.895 57.446 151.805 57.454 150.347 55.486C148.982 53.642 148.786 53.621 147.623 55.189C146.466 56.747 145.932 56.656 140.675 54.004C137.542 52.425 131.573 50.374 127.408 49.447C123.244 48.521 120.211 47.442 120.669 47.05C121.126 46.658 126.45 45.787 132.5 45.115C138.55 44.443 147.775 43.269 153 42.505C158.225 41.741 164.3 41.323 166.5 41.575C168.7 41.827 175.9 42.452 182.5 42.963ZM7.00006 46.5C7.68506 47.325 8.69506 48 9.24506 48C9.80306 48 9.69406 47.337 9.00006 46.5C8.31506 45.675 7.30506 45 6.75506 45C6.19706 45 6.30606 45.663 7.00006 46.5ZM167.862 49.057C170.084 50.412 172.459 50.989 174.862 50.76L178.5 50.412L174.782 48.706C172.737 47.768 169.587 47.002 167.782 47.004L164.5 47.007L167.862 49.057ZM143.771 58.188C143.553 58.841 142.84 59.553 142.187 59.771C141.456 60.015 141.233 59.557 141.606 58.584C142.304 56.766 144.371 56.388 143.771 58.188ZM38.2501 59.723C34.7741 60.155 33.9961 61.401 36.5821 62.393C39.8131 63.633 42.7611 63.02 43.2901 61C43.6001 59.813 43.3431 59.065 42.6561 59.16C42.0201 59.248 40.0381 59.502 38.2501 59.723ZM240.75 69.392C238.968 70.745 238.245 77.415 239.778 78.363C240.206 78.627 241.548 78.091 242.76 77.172C244.59 75.784 244.86 74.863 244.351 71.75C243.68 67.644 243.343 67.423 240.75 69.392ZM221.605 72.586C221.271 73.458 221.434 74.921 221.968 75.836C222.741 77.16 222.945 76.835 222.97 74.25C223.003 70.691 222.546 70.134 221.605 72.586ZM247.569 72.888C247.207 73.473 247.536 75.145 248.3 76.603C249.24 78.397 249.845 78.808 250.172 77.877C250.814 76.051 248.433 71.49 247.569 72.888ZM236.079 74.583C236.127 75.748 236.364 75.985 236.683 75.188C236.972 74.466 236.936 73.603 236.604 73.271C236.272 72.939 236.036 73.529 236.079 74.583ZM230.031 74.5C230.031 75.05 230.467 76.175 231 77C231.533 77.825 231.969 78.05 231.969 77.5C231.969 76.95 231.533 75.825 231 75C230.467 74.175 230.031 73.95 230.031 74.5ZM219.5 78C219.84 78.55 220.568 79 221.118 79C221.668 79 221.84 78.55 221.5 78C221.16 77.45 220.432 77 219.882 77C219.332 77 219.16 77.45 219.5 78ZM237.068 77.639C237.03 78.266 237.885 79.841 238.967 81.139C240.048 82.438 240.948 82.938 240.967 82.25C240.985 81.563 240.619 81 240.153 81C239.687 81 238.817 79.987 238.22 78.75C237.624 77.513 237.105 77.013 237.068 77.639ZM242.638 79.5C242.322 80.325 242.499 81 243.031 81C243.564 81 244 80.325 244 79.5C244 78.675 243.823 78 243.607 78C243.391 78 242.955 78.675 242.638 79.5ZM234.597 80.844C234.251 81.404 234.455 82.163 235.05 82.531C236.588 83.481 237.58 82.18 236.296 80.896C235.578 80.178 235.019 80.161 234.597 80.844ZM253.079 82.583C253.127 83.748 253.364 83.985 253.683 83.188C253.972 82.466 253.936 81.603 253.604 81.271C253.272 80.939 253.036 81.529 253.079 82.583ZM190 83C190 83.55 189.073 84 187.941 84C186.809 84 186.16 83.55 186.5 83C186.84 82.45 187.766 82 188.559 82C189.352 82 190 82.45 190 83ZM248.923 82.083C248.314 85.404 248.054 86.279 247.521 86.813C247.174 87.159 246.442 86.78 245.892 85.971C245.077 84.772 244.949 84.854 245.196 86.417C245.363 87.472 246.001 88.501 246.613 88.705C247.866 89.122 250.62 83.286 249.635 82.301C249.286 81.952 248.966 81.854 248.923 82.083ZM237 84.941C237 85.459 237.45 86.16 238 86.5C238.55 86.84 239 86.416 239 85.559C239 84.702 238.55 84 238 84C237.45 84 237 84.423 237 84.941ZM255.115 86.782C253.683 90.178 254.235 92.165 256.095 90.305C256.679 89.721 257.009 87.951 256.828 86.372L256.5 83.5L255.115 86.782ZM148.768 92C150.267 94.401 149.821 94.476 145.95 92.474C142.413 90.645 142.233 90 145.259 90C146.502 90 148.081 90.9 148.768 92ZM157.295 93.25C156.754 96.068 154.682 96.912 153.4 94.838C152.992 94.179 153.677 92.87 154.983 91.813C157.754 89.569 157.976 89.707 157.295 93.25ZM103.5 100C103.139 100.585 104.173 101 105.991 101C107.7 101 110.398 101.672 111.986 102.493C115.256 104.184 117.966 103.582 118.07 101.143C118.185 98.457 119.847 103.021 119.93 106.25C119.968 107.763 120.424 109 120.943 109C122.446 109 125 104.768 125 102.277C125 99.578 125.21 99.54 129.079 101.541C130.718 102.388 132.546 102.781 133.141 102.413C133.737 102.045 134.573 102.309 135 103C135.479 103.774 136.299 103.931 137.138 103.409C138.817 102.364 143.284 102.857 144.106 104.178C144.439 104.713 147.046 105.235 149.9 105.338C152.831 105.444 155.431 106.079 155.874 106.797C156.306 107.496 157.349 107.803 158.19 107.48C159.344 107.038 159.871 107.817 160.33 110.644C160.664 112.707 160.732 114.601 160.481 114.852C160.229 115.104 157.206 114.114 153.762 112.652C146.29 109.481 145.811 109.447 143.561 111.933C141.889 113.78 141.904 113.923 143.906 115.173C147.483 117.407 146.271 118.317 140.75 117.54C133.845 116.569 133.37 116.579 127.355 117.835C120.181 119.332 115.654 118.325 109.126 113.782C106.032 111.628 102.265 109.108 100.756 108.183C97.3611 106.101 97.3311 105.201 100.54 101.74C103.053 99.031 104.696 98.064 103.5 100ZM104.5 103C104.16 103.55 104.61 104 105.5 104C106.39 104 106.84 103.55 106.5 103C106.16 102.45 105.71 102 105.5 102C105.29 102 104.84 102.45 104.5 103ZM237.985 117.309C237.993 118.304 237.55 118.84 237 118.5C236.45 118.16 236.007 116.671 236.015 115.191C236.027 113.086 236.242 112.827 237 114C237.533 114.825 237.976 116.314 237.985 117.309ZM7.66706 115.667C7.30006 116.033 7.00006 116.798 7.00006 117.367C7.00006 117.993 7.46606 117.934 8.18306 117.217C8.83406 116.566 9.13406 115.801 8.85006 115.517C8.56606 115.232 8.03306 115.3 7.66706 115.667ZM250.758 120.515C251.022 121.898 251.638 123.276 252.126 123.578C253.598 124.488 254.316 121.086 252.989 119.487C251.143 117.262 250.218 117.688 250.758 120.515ZM6.96406 122.164C5.81906 124.397 5.84606 124.424 7.57406 122.774C8.56806 121.824 9.10706 120.773 8.77106 120.438C8.43606 120.103 7.62306 120.88 6.96406 122.164ZM22.3411 127C21.3661 128.65 20.2041 130 19.7591 130C19.3131 130 19.6471 128.65 20.5001 127C21.3531 125.35 22.5151 124 23.0821 124C23.6491 124 23.3161 125.35 22.3411 127ZM35.3931 125.582C36.3741 128.137 36.0971 129.251 34.6221 128.685C33.8641 128.394 32.7781 128.622 32.2091 129.191C30.8081 130.592 29.0001 129.324 29.0001 126.941C29.0001 124.215 30.9771 124.505 31.1061 127.25C31.2041 129.322 31.2991 129.283 32.2991 126.75C33.5291 123.638 34.5061 123.27 35.3931 125.582ZM40.3241 125.402C40.6201 126.173 40.5971 127.07 40.2731 127.394C39.4161 128.25 36.9211 125.936 37.5701 124.887C38.3871 123.565 39.7151 123.814 40.3241 125.402ZM45.0001 125C45.0001 125.55 44.5501 126 44.0001 126C43.4501 126 43.0001 125.55 43.0001 125C43.0001 124.45 43.4501 124 44.0001 124C44.5501 124 45.0001 124.45 45.0001 125ZM183.434 125.69C183.843 126.754 183.529 126.818 181.977 125.988C179.622 124.727 179.498 124.333 181.457 124.333C182.258 124.333 183.148 124.944 183.434 125.69ZM27.3511 129.767C27.0291 130.995 26.3211 132 25.7761 132C25.2321 132 25.0591 131.288 25.3931 130.418C25.7271 129.548 26.0001 128.108 26.0001 127.218C26.0001 126.176 26.3441 125.944 26.9671 126.567C27.4991 127.099 27.6721 128.539 27.3511 129.767ZM254.195 128.5C254.215 130.15 254.439 130.704 254.693 129.731C254.947 128.758 254.93 127.408 254.656 126.731C254.382 126.054 254.175 126.85 254.195 128.5ZM25.0001 128C25.0001 128.55 24.5501 129 24.0001 129C23.4501 129 23.0001 128.55 23.0001 128C23.0001 127.45 23.4501 127 24.0001 127C24.5501 127 25.0001 127.45 25.0001 128ZM247 136.5C246.282 137.365 246.185 138 246.771 138C247.329 138 248.045 137.325 248.362 136.5C248.678 135.675 248.781 135 248.591 135C248.401 135 247.685 135.675 247 136.5ZM94.7291 136.604C94.3281 137.005 94.0001 138.023 94.0001 138.867C94.0001 139.992 94.2961 140.104 95.1121 139.288C95.7241 138.676 96.0521 137.657 95.8421 137.025C95.6311 136.393 95.1301 136.203 94.7291 136.604ZM248.614 138.563C248.284 139.423 247.561 139.847 247.007 139.504C246.453 139.162 246 139.359 246 139.941C246 140.523 246.505 141 247.122 141C247.944 141 247.939 141.368 247.105 142.373C246.478 143.129 246.246 144.479 246.59 145.373C246.933 146.268 246.766 147 246.218 147C245.671 147 244.867 145.313 244.432 143.25L243.641 139.5L243 143L242.359 146.5L241.566 142.739C240.695 138.608 238.999 136.542 239.764 140.545C240.163 142.631 239.939 142.92 238.369 142.348C236.86 141.799 236.933 142.037 238.751 143.584C240.009 144.655 241.15 146.935 241.338 148.754C241.523 150.544 242.045 152.344 242.498 152.754C242.95 153.164 243.029 152.989 242.672 152.364C241.415 150.164 246.593 150.306 249.886 152.562C253.407 154.975 257.009 154.757 256.985 152.133C256.971 150.705 256.835 150.689 255.904 152C255.083 153.155 254.976 152.868 255.438 150.75C255.786 149.157 255.61 148 255.019 148C254.459 148 254 148.45 254 149C254 149.55 253.325 150 252.5 150C250.756 150 250.592 148.203 251.998 144.505C252.63 142.843 253.436 142.151 254.195 142.62C254.854 143.028 254.374 141.93 253.129 140.181C250.607 136.64 249.504 136.245 248.614 138.563ZM91.6671 138.667C91.3001 139.033 91.0001 139.798 91.0001 140.367C91.0001 140.993 91.4661 140.934 92.1831 140.217C92.8341 139.566 93.1341 138.801 92.8501 138.517C92.5661 138.232 92.0331 138.3 91.6671 138.667ZM113 140C113 140.55 113.45 141 114 141C114.55 141 115 140.55 115 140C115 139.45 114.55 139 114 139C113.45 139 113 139.45 113 140ZM250.245 141.5C249.982 142.875 249.594 144 249.383 144C249.173 144 249 142.875 249 141.5C249 140.125 249.388 139 249.861 139C250.335 139 250.508 140.125 250.245 141.5ZM96.5001 142C96.1601 142.55 96.3591 143 96.9411 143C97.5231 143 98.0001 142.55 98.0001 142C98.0001 141.45 97.8021 141 97.5591 141C97.3161 141 96.8401 141.45 96.5001 142ZM116.25 142.674C115.013 143.538 114 144.655 114 145.157C114 146.521 117.669 144.304 118.351 142.528C119.052 140.7 119.083 140.698 116.25 142.674ZM87.7501 144C88.6211 144 89.0371 144.296 88.6751 144.658C88.3131 145.02 88.5191 145.92 89.1311 146.658C89.9801 147.68 89.8841 148 88.7291 148C87.8961 148 86.9551 147.325 86.6381 146.5C86.3221 145.675 85.3561 145 84.4921 145C83.1981 145 83.1481 144.753 84.2111 143.599C84.9201 142.828 85.6501 142.603 85.8331 143.099C86.0171 143.594 86.8791 144 87.7501 144ZM109 143.059C109 143.641 109.45 143.84 110 143.5C110.55 143.16 111 142.684 111 142.441C111 142.198 110.55 142 110 142C109.45 142 109 142.477 109 143.059ZM105.211 144.601C104.501 145.37 104.362 146 104.902 146C105.94 146 107.443 144.098 106.85 143.534C106.658 143.351 105.92 143.831 105.211 144.601ZM77.0001 145.789C77.0001 146.97 77.2831 147.01 78.5001 146C79.3251 145.315 80.0001 144.66 80.0001 144.544C80.0001 144.428 79.3251 144.333 78.5001 144.333C77.6751 144.333 77.0001 144.988 77.0001 145.789ZM92.5771 144.875C92.2801 145.356 93.1451 145.75 94.5001 145.75C95.8551 145.75 96.7201 145.356 96.4231 144.875C96.1251 144.394 95.2601 144 94.5001 144C93.7401 144 92.8751 144.394 92.5771 144.875ZM127.924 146.637C126.276 148.431 125.897 149.416 126.742 149.718C127.715 150.065 127.725 150.632 126.79 152.331C124.51 156.473 125.427 159.6 128.009 156.489C128.689 155.67 130.307 155 131.605 155H133.966L131.909 151.338C130.777 149.323 130.068 146.848 130.332 145.838C130.956 143.453 130.806 143.503 127.924 146.637ZM235.083 144.365C235.313 144.565 236.625 145.265 238 145.92C240.357 147.042 240.389 147.022 238.559 145.555C236.966 144.279 233.711 143.164 235.083 144.365ZM207.2 146.2C206.54 146.86 206 147.76 206 148.2C206 149.392 208.779 149.167 209.554 147.913C210.584 146.247 208.598 144.802 207.2 146.2ZM30.9171 147.359C30.6881 147.557 29.1501 148.021 27.5001 148.39C25.3091 148.88 24.9051 148.787 26.0001 148.046C27.3501 147.132 31.9201 146.494 30.9171 147.359ZM36.0001 148.617C36.0001 148.827 35.1001 149 34.0001 149C32.9001 149 32.0001 148.592 32.0001 148.094C32.0001 147.595 32.9001 147.423 34.0001 147.71C35.1001 147.998 36.0001 148.406 36.0001 148.617ZM52.5001 148C52.8401 148.55 53.3161 149 53.5591 149C53.8021 149 54.0001 148.55 54.0001 148C54.0001 147.45 53.5231 147 52.9411 147C52.3591 147 52.1601 147.45 52.5001 148ZM68.0001 148C67.2071 148.49 66.7831 149.116 67.0581 149.391C67.3331 149.666 68.2071 149.49 69.0001 149C69.7931 148.51 70.2171 147.884 69.9421 147.609C69.6671 147.334 68.7931 147.51 68.0001 148ZM107 148C106.207 148.49 105.89 149.223 106.296 149.629C106.701 150.035 107.558 149.842 108.2 149.2C108.842 148.558 109.159 147.825 108.904 147.571C108.65 147.317 107.793 147.51 107 148ZM232.5 148L229.5 148.763L232.691 148.882C234.446 148.947 236.16 148.55 236.5 148C237.184 146.893 236.849 146.893 232.5 148ZM115 149C115 149.55 115.45 150 116 150C116.55 150 117 149.55 117 149C117 148.45 116.55 148 116 148C115.45 148 115 148.45 115 149ZM41.0001 151.57C41.0001 151.845 40.1001 151.589 39.0001 151C37.9001 150.411 37.0001 149.705 37.0001 149.43C37.0001 149.155 37.9001 149.411 39.0001 150C40.1001 150.589 41.0001 151.295 41.0001 151.57ZM211 150.885C211 152.323 211.461 152.76 212.542 152.345C214.249 151.69 214.039 149.846 212.188 149.229C211.528 149.009 211 149.746 211 150.885ZM72.3341 151.25C71.9031 151.938 71.4061 153.549 71.2301 154.832C70.9841 156.62 71.3291 157.085 72.7051 156.824C73.9061 156.596 74.6041 155.412 74.8131 153.242C75.1281 149.986 73.7971 148.917 72.3341 151.25ZM81.1931 154.769C80.5991 154.967 80.3491 155.747 80.6391 156.501C80.9481 157.306 81.8551 157.613 82.8331 157.243C84.2291 156.715 84.1951 156.919 82.6271 158.501C81.5971 159.539 79.9091 160.451 78.8771 160.527C76.6701 160.69 76.6921 160.77 78.1031 157.674C78.9191 155.883 78.9001 154.681 78.0301 153.055C76.8581 150.866 76.8641 150.865 79.5631 152.633C81.0541 153.61 81.7871 154.571 81.1931 154.769ZM99.0791 152.583C99.1271 153.748 99.3641 153.985 99.6831 153.188C99.9721 152.466 99.9361 151.603 99.6041 151.271C99.2721 150.939 99.0361 151.529 99.0791 152.583ZM217.543 151.931C217.226 152.443 217.425 153.144 217.984 153.49C218.543 153.835 219 153.416 219 152.559C219 150.802 218.4 150.544 217.543 151.931ZM229 152.5C229 153.761 229.832 154.052 232.75 153.81C234.813 153.64 236.5 153.05 236.5 152.5C236.5 151.95 234.813 151.36 232.75 151.19C229.832 150.948 229 151.239 229 152.5ZM67.0001 152.941C67.0001 154.617 68.7741 155.033 69.3641 153.494C69.7121 152.587 69.3611 152 68.4691 152C67.6611 152 67.0001 152.423 67.0001 152.941ZM40.6831 155.188C40.3641 155.985 40.1271 155.748 40.0791 154.583C40.0361 153.529 40.2721 152.939 40.6041 153.271C40.9361 153.603 40.9721 154.466 40.6831 155.188ZM47.4571 153.931C47.7741 154.443 47.5751 155.144 47.0161 155.49C46.4571 155.835 46.0001 155.416 46.0001 154.559C46.0001 152.802 46.6001 152.544 47.4571 153.931ZM213.5 154C213.16 154.55 213.835 155 215 155C216.165 155 216.84 154.55 216.5 154C216.16 153.45 215.485 153 215 153C214.515 153 213.84 153.45 213.5 154ZM90.0001 155.607C90.0001 155.823 89.3251 156 88.5001 156C87.6751 156 87.0001 155.564 87.0001 155.031C87.0001 154.499 87.6751 154.322 88.5001 154.638C89.3251 154.955 90.0001 155.391 90.0001 155.607ZM209.469 155.05C208.551 156.536 209.281 157.062 210.886 156.071C211.745 155.539 211.848 155.024 211.176 154.609C210.605 154.256 209.837 154.455 209.469 155.05ZM239.658 155.449C239.287 156.416 239.582 156.714 240.545 156.344C241.339 156.04 241.74 155.388 241.435 154.895C240.669 153.655 240.303 153.769 239.658 155.449ZM58.0001 158.702C58.0001 158.985 56.7631 158.896 55.2501 158.504C53.7371 158.113 51.8491 157.687 51.0541 157.559C50.2591 157.43 49.4391 156.818 49.2331 156.199C48.9861 155.459 50.4241 155.607 53.4291 156.63C55.9431 157.487 58.0001 158.419 58.0001 158.702ZM233.5 156C233.16 156.55 233.835 157 235 157C236.165 157 236.84 156.55 236.5 156C236.16 155.45 235.485 155 235 155C234.515 155 233.84 155.45 233.5 156ZM45.9851 157.857C45.9491 159.361 44.0451 161.378 43.3331 160.667C42.9071 160.24 43.2201 159.473 44.0291 158.961C45.0251 158.331 45.0971 158.026 44.2501 158.015C43.5631 158.007 43.0001 157.564 43.0001 157.031C43.0001 156.499 43.6751 156.322 44.5001 156.638C45.3251 156.955 45.9931 157.503 45.9851 157.857ZM112.985 157.583C112.972 159.187 112.811 159.255 112 158C111.418 157.099 111.025 156.975 111.015 157.691C110.99 159.634 112.963 160.26 113.631 158.52C113.97 157.637 113.966 156.633 113.624 156.29C113.281 155.947 112.993 156.529 112.985 157.583ZM211.244 157.664C209.258 158.465 210.86 160 213.681 160C215.847 160 216.052 159.767 215 158.5C213.695 156.927 213.293 156.838 211.244 157.664ZM218.211 158.601C217.501 159.37 217.362 160 217.902 160C218.94 160 220.443 158.098 219.85 157.534C219.658 157.351 218.92 157.831 218.211 158.601ZM244.5 158C244.84 158.55 245.541 159 246.059 159C246.577 159 247 158.55 247 158C247 157.45 246.298 157 245.441 157C244.584 157 244.16 157.45 244.5 158ZM116 159C116 159.55 116.477 160 117.059 160C117.641 160 117.84 159.55 117.5 159C117.16 158.45 116.684 158 116.441 158C116.198 158 116 158.45 116 159ZM171.688 161.77C173.292 165.702 172.021 166.591 168.62 163.916C166.453 162.211 166.188 161.518 167.07 159.869C168.476 157.242 170.116 157.918 171.688 161.77ZM54.6921 160.549C56.0911 161.949 55.9701 162.03 53.4371 161.395C50.9401 160.768 50.7891 160.861 52.0661 162.241C52.8551 163.093 53.8751 163.563 54.3331 163.285C54.7911 163.007 54.4491 164.164 53.5751 165.856C52.5311 167.874 51.4711 168.734 50.4921 168.359C49.6711 168.044 49.0001 167.561 49.0001 167.286C49.0001 167.011 49.6381 167.031 50.4171 167.33C52.2411 168.03 53.3691 165.15 51.9441 163.433C51.3441 162.71 50.2571 162.348 49.5281 162.628C48.7991 162.907 47.9051 162.656 47.5421 162.068C47.1581 161.447 47.7181 161 48.8821 161C49.9821 161 51.1601 160.55 51.5001 160C52.3391 158.643 52.8791 158.736 54.6921 160.549ZM228 159.737C228 161.238 230.933 164.638 230.968 163.179C230.986 162.452 230.325 161.182 229.5 160.357C228.675 159.532 228 159.253 228 159.737ZM64.9641 164.372C64.9441 164.993 63.7701 166.85 62.3541 168.5C60.9391 170.15 60.1011 170.825 60.4921 170C60.8831 169.175 59.9971 169.967 58.5221 171.76C57.0471 173.552 55.4151 174.756 54.8951 174.435C54.3761 174.114 54.0741 174.421 54.2251 175.116C54.3761 175.812 53.6501 176.566 52.6111 176.791C50.8381 177.175 50.8531 177.015 52.8611 174.196C54.0371 172.543 55.0001 170.689 55.0001 170.074C55.0001 169.46 56.1111 168.451 57.4691 167.832C58.8261 167.214 59.7261 166.365 59.4671 165.947C59.2091 165.529 59.8471 165.409 60.8861 165.68C61.9241 165.952 63.0771 165.685 63.4461 165.087C63.8161 164.489 63.6411 164 63.0591 164C62.4771 164 62.0001 163.27 62.0001 162.378C62.0001 161.049 62.2711 160.98 63.5001 162C64.3251 162.685 64.9841 163.752 64.9641 164.372ZM118.5 162C118.84 162.55 119.316 163 119.559 163C119.802 163 120 162.55 120 162C120 161.45 119.523 161 118.941 161C118.359 161 118.16 161.45 118.5 162ZM237.75 163.083C236.075 164.918 236.088 165 238.059 165C239.191 165 239.871 165.399 239.57 165.887C239.269 166.374 239.637 167.284 240.389 167.908C241.456 168.794 241.869 168.607 242.275 167.058C242.56 165.966 242.144 164.534 241.349 163.875C240.185 162.909 240.156 162.517 241.203 161.854C242.21 161.215 242.165 161.046 241 161.099C240.175 161.136 238.713 162.029 237.75 163.083ZM214.543 162.931C214.226 163.443 214.425 164.144 214.984 164.49C216.177 165.227 218 164.291 218 162.941C218 161.724 215.293 161.716 214.543 162.931ZM226.966 163.25C226.412 166.895 226.558 167.292 228.75 168.103C230.603 168.789 231 168.588 231 166.968C231 165.885 230.358 165 229.573 165C228.789 165 227.941 164.213 227.689 163.25C227.254 161.583 227.219 161.583 226.966 163.25ZM35.0001 163.941C35.0001 164.459 34.4821 165.202 33.8491 165.594C33.0511 166.087 33.2631 166.719 34.5401 167.653C36.4451 169.046 35.3561 169.458 32.5821 168.393C30.5401 167.61 30.5231 165 32.5591 165C33.4161 165 33.8401 164.55 33.5001 164C33.1601 163.45 33.3591 163 33.9411 163C34.5231 163 35.0001 163.423 35.0001 163.941ZM38.0001 164C38.0001 164.55 37.8021 165 37.5591 165C37.3161 165 36.8401 164.55 36.5001 164C36.1601 163.45 36.3591 163 36.9411 163C37.5231 163 38.0001 163.45 38.0001 164ZM219.387 164.182C218.19 166.119 218.332 169.322 219.679 170.75C221.589 172.776 221.963 172.234 221.601 167.963C221.213 163.381 220.566 162.276 219.387 164.182ZM49.0001 164.346C49.0001 164.537 48.2951 166.106 47.4331 167.834C46.5711 169.561 46.1481 171.43 46.4921 171.987C47.2921 173.281 46.3831 173.275 43.9441 171.97C42.3161 171.099 42.2091 170.638 43.2511 168.97C43.9271 167.887 45.0341 167 45.7091 167C46.3901 167 46.6811 166.332 46.3621 165.5C45.9971 164.55 46.3751 164 47.3931 164C48.2771 164 49.0001 164.156 49.0001 164.346ZM116.188 165.063C116.428 165.784 117.216 166.572 117.938 166.813C118.688 167.063 119.063 166.688 118.813 165.938C118.572 165.216 117.784 164.428 117.063 164.188C116.313 163.938 115.938 164.313 116.188 165.063ZM71.2341 168.971C73.0301 170.605 73.8961 171.955 73.1581 171.971C71.0621 172.016 66.5701 175.925 65.8501 178.329L65.1991 180.5L65.1001 178.25C64.9701 175.32 64.1761 175.411 59.9781 178.841C56.3121 181.835 44.0001 186.531 44.0001 184.934C44.0001 184.093 44.7931 183.838 46.6381 184.085C46.9891 184.132 47.5521 183.756 47.8881 183.249C48.2251 182.742 50.5961 181.11 53.1581 179.622C57.4311 177.141 61.1761 173.485 64.9711 168.091C66.8841 165.372 67.3491 165.437 71.2341 168.971ZM96.3411 167.25C96.7251 168.197 97.0941 168.146 97.8651 167.036C98.6501 165.907 99.5251 165.797 101.691 166.554C103.785 167.286 104.847 168.626 105.862 171.822C106.611 174.18 106.953 176.38 106.622 176.711C106.291 177.042 104.164 176.476 101.895 175.453C99.6261 174.429 96.5581 173.684 95.0771 173.797C93.5971 173.91 91.5111 173.325 90.4431 172.497C88.5521 171.032 88.5801 170.925 91.5001 168.501C94.9071 165.672 95.6251 165.487 96.3411 167.25ZM41.1831 169.217C40.4661 169.934 40.0001 169.993 40.0001 169.367C40.0001 168.032 41.1831 166.849 41.8501 167.517C42.1341 167.801 41.8341 168.566 41.1831 169.217ZM79.0001 167.441C79.0001 167.684 78.5501 168.16 78.0001 168.5C77.4501 168.84 77.0001 168.641 77.0001 168.059C77.0001 167.477 77.4501 167 78.0001 167C78.5501 167 79.0001 167.198 79.0001 167.441ZM235.5 168C235.16 168.55 235.921 169.037 237.191 169.082C239.233 169.154 239.133 169.324 236.327 170.553C234.581 171.318 232.836 172.456 232.448 173.083C231.532 174.566 234.178 176.222 235.442 174.958C235.969 174.431 237.225 174 238.234 174C239.561 174 239.983 173.378 239.759 171.75C239.194 167.646 236.944 165.664 235.5 168ZM202 169C202 169.55 202.45 170 203 170C203.55 170 204 169.55 204 169C204 168.45 203.55 168 203 168C202.45 168 202 168.45 202 169ZM150 169.685C145.064 170.5 144.536 170.936 146.597 172.496C147.643 173.288 148.924 173.951 149.441 173.968C149.959 173.986 149.509 173.339 148.441 172.532C146.579 171.123 146.609 171.062 149.191 171.032C150.671 171.014 152.16 170.55 152.5 170C152.84 169.45 152.979 169.061 152.809 169.136C152.639 169.211 151.375 169.458 150 169.685ZM158.079 170.583C158.127 171.748 158.364 171.985 158.683 171.188C158.972 170.466 158.936 169.603 158.604 169.271C158.272 168.939 158.036 169.529 158.079 170.583ZM244.473 170.044C244.148 170.57 244.809 171 245.941 171C248.356 171 248.599 170.444 246.532 169.651C245.725 169.341 244.798 169.518 244.473 170.044ZM252.51 169.984C251.773 171.177 252.709 173 254.059 173C255.276 173 255.284 170.293 254.069 169.543C253.557 169.226 252.856 169.425 252.51 169.984ZM31.5001 171C31.1601 171.55 30.3461 171.993 29.6911 171.985C28.9751 171.975 29.0991 171.582 30.0001 171C31.9211 169.758 32.2671 169.758 31.5001 171ZM51.0001 170.833C51.0001 171.292 50.3251 171.667 49.5001 171.667C48.6751 171.667 48.0001 171.292 48.0001 170.833C48.0001 170.375 48.6751 170 49.5001 170C50.3251 170 51.0001 170.375 51.0001 170.833ZM67.5001 171C67.8401 171.55 68.3161 172 68.5591 172C68.8021 172 69.0001 171.55 69.0001 171C69.0001 170.45 68.5231 170 67.9411 170C67.3591 170 67.1601 170.45 67.5001 171ZM228.5 171C228.84 171.55 229.316 172 229.559 172C229.802 172 230 171.55 230 171C230 170.45 229.523 170 228.941 170C228.359 170 228.16 170.45 228.5 171ZM153 172.059C153 172.641 153.45 172.84 154 172.5C154.55 172.16 155 171.684 155 171.441C155 171.198 154.55 171 154 171C153.45 171 153 171.477 153 172.059ZM207.232 172.449C204.315 174.061 203.391 175 204.723 175C205.303 175 206.841 174.115 208.139 173.033C210.815 170.804 210.535 170.624 207.232 172.449ZM226.564 172.293C226.94 173.279 227.499 173.834 227.807 173.526C228.115 173.219 227.808 172.412 227.124 171.733C226.136 170.753 226.022 170.868 226.564 172.293ZM43.0001 173C43.0001 173.55 42.4731 174 41.8291 174C41.1851 174 39.7301 174.787 38.5961 175.75C36.5931 177.451 36.5761 177.444 38.0171 175.5C40.4861 172.17 43.0001 170.909 43.0001 173ZM163.607 173.582C162.756 175.798 162.821 176 164.383 176C165.144 176 166.002 175.1 166.29 174C166.918 171.596 164.513 171.221 163.607 173.582ZM249.583 173.645C248.679 176.001 250.881 178.344 252.633 176.89C254.5 175.34 254.349 174.257 252.1 173.053C250.636 172.27 250.058 172.405 249.583 173.645ZM213.954 175.086C212.668 177.49 213.641 179.181 215.039 176.971C216.02 175.42 216.322 173 215.535 173C215.28 173 214.568 173.939 213.954 175.086ZM242.453 174.076C241.601 175.454 242.461 176.264 244.323 175.838C245.56 175.556 245.582 175.297 244.454 174.26C243.535 173.415 242.898 173.356 242.453 174.076ZM77.1831 177.217C76.2721 178.128 75.7121 178.09 74.7501 177.053C73.7301 175.953 73.8211 175.819 75.2501 176.321C76.2511 176.674 77.0001 176.451 77.0001 175.802C77.0001 175.178 77.3081 174.974 77.6831 175.35C78.0591 175.726 77.8341 176.566 77.1831 177.217ZM154.052 176.053C155.388 176.899 162.855 177.453 161.917 176.638C161.688 176.438 159.498 176.019 157.052 175.706C154.174 175.338 153.115 175.461 154.052 176.053ZM199 176.059C199 176.641 199.412 176.864 199.915 176.553C200.418 176.242 201.057 176.553 201.336 177.244C201.641 178.002 201.873 177.806 201.921 176.75C201.964 175.787 201.325 175 200.5 175C199.675 175 199 175.477 199 176.059ZM208.5 176C208.16 176.55 208.332 177 208.882 177C209.432 177 210.16 176.55 210.5 176C210.84 175.45 210.668 175 210.118 175C209.568 175 208.84 175.45 208.5 176ZM71.0001 177C71.0001 177.55 70.5231 178 69.9411 178C69.3591 178 69.1601 177.55 69.5001 177C69.8401 176.45 70.3161 176 70.5591 176C70.8021 176 71.0001 176.45 71.0001 177ZM145.5 177C145.16 177.55 145.359 178 145.941 178C146.523 178 147 177.55 147 177C147 176.45 146.802 176 146.559 176C146.316 176 145.84 176.45 145.5 177ZM103 179.013C103 179.453 102.105 179.579 101.011 179.293C99.9171 179.007 99.2571 178.393 99.5431 177.93C100.152 176.946 103 177.838 103 179.013ZM77.2051 181.011C76.0141 182.289 73.8161 183.108 71.1711 183.261C68.8831 183.392 67.0081 183.838 67.0051 184.25C67.0021 184.662 66.1271 185 65.0591 185C63.9911 185 62.8351 185.457 62.4901 186.016C62.1441 186.575 61.4131 186.755 60.8641 186.416C60.3161 186.077 59.2911 186.588 58.5861 187.551C57.7241 188.73 57.0801 188.939 56.6171 188.19C56.1501 187.434 55.1371 187.378 53.4651 188.013C52.1091 188.529 51.0001 188.682 51.0001 188.353C51.0001 188.024 50.3651 188.282 49.5891 188.926C48.7451 189.627 47.9441 189.718 47.5951 189.153C46.9111 188.047 48.9271 187.159 53.9141 186.37C55.8861 186.058 57.9501 185.522 58.5001 185.179C59.0501 184.837 59.9501 184.47 60.5001 184.365C61.0501 184.259 63.4601 183.462 65.8561 182.593C68.2531 181.724 70.6851 181.305 71.2611 181.661C71.8501 182.025 72.0141 181.832 71.6361 181.219C71.2161 180.541 72.1971 179.977 74.2311 179.725C76.0291 179.502 77.8551 179.248 78.2891 179.16C78.7231 179.072 78.2351 179.905 77.2051 181.011ZM199 180.015C197.686 180.878 197.682 181.117 198.966 181.943C200.606 182.997 203.347 181.37 202.43 179.887C201.73 178.754 200.873 178.786 199 180.015ZM207.75 179.577C207.338 179.993 207 181.248 207 182.367C207 183.838 207.302 184.098 208.094 183.306C208.695 182.705 209.033 181.449 208.844 180.517C208.655 179.584 208.162 179.161 207.75 179.577ZM253.598 179.736C252.483 180.85 252.993 181.574 255 181.725C256.1 181.808 257 181.502 257 181.045C257 179.968 254.375 178.958 253.598 179.736ZM109 183.19C109 184.505 106.727 183.682 106.229 182.187C105.985 181.456 106.443 181.233 107.416 181.606C108.287 181.941 109 182.653 109 183.19ZM134.5 182C135.6 182.473 137.625 182.859 139 182.859C141.279 182.859 141.323 182.783 139.5 182C138.4 181.527 136.375 181.141 135 181.141C132.721 181.141 132.677 181.217 134.5 182ZM212 185.559C212 186.476 212.472 186.826 213.146 186.41C213.949 185.913 214.098 186.475 213.642 188.29C213.285 189.713 213.369 191.11 213.83 191.395C214.795 191.992 215.078 189.516 214.417 186.25C213.903 183.71 212 183.166 212 185.559ZM79.7201 185.613C78.4701 186.863 65.9471 189.723 65.4241 188.877C65.1261 188.395 64.4321 188 63.8821 188C63.3321 188 63.1601 188.45 63.5001 189C63.8401 189.55 63.6681 190 63.1181 190C62.5681 190 61.8691 189.597 61.5651 189.105C60.6781 187.67 64.1341 186.645 69.0001 186.899C71.4751 187.029 74.6251 186.683 76.0001 186.131C78.8961 184.968 80.6031 184.73 79.7201 185.613ZM105 187.5C105 188.325 104.823 189 104.607 189C104.391 189 103.955 188.325 103.638 187.5C103.322 186.675 103.499 186 104.031 186C104.564 186 105 186.675 105 187.5ZM221.393 187.582C222.264 189.853 222.143 191 221.031 191C220.499 191 220.358 190.213 220.719 189.25C221.293 187.718 221.165 187.671 219.687 188.872C218.759 189.627 218 190.002 218 189.704C218 188.382 219.286 186 220 186C220.432 186 221.059 186.712 221.393 187.582ZM78.6461 191.29C78.5281 193.189 78.0391 193.513 75.7841 193.182C74.2881 192.962 72.4941 192.095 71.7961 191.254C70.6891 189.92 71.0021 189.781 74.2641 190.162C76.3191 190.402 78.0001 190.239 78.0001 189.799C78.0001 189.36 78.1771 189 78.3941 189C78.6111 189 78.7241 190.031 78.6461 191.29ZM242.937 193.25C242.877 196.29 242.813 196.349 241.935 194.158C241.418 192.869 241.249 191.407 241.557 190.908C242.581 189.251 243.001 189.964 242.937 193.25ZM65.0001 192C65.0001 192.55 64.8021 193 64.5591 193C64.3161 193 63.8401 192.55 63.5001 192C63.1601 191.45 63.3591 191 63.9411 191C64.5231 191 65.0001 191.45 65.0001 192ZM71.1531 193.247C70.1181 194.282 68.0001 193.468 68.0001 192.035C68.0001 191.569 68.9301 191.43 70.0661 191.728C71.4141 192.08 71.7921 192.608 71.1531 193.247ZM226.5 192C226.84 192.55 226.641 193 226.059 193C225.477 193 225 192.55 225 192C225 191.45 225.198 191 225.441 191C225.684 191 226.16 191.45 226.5 192ZM221 194C221 194.55 220.523 195 219.941 195C219.359 195 219.16 194.55 219.5 194C219.84 193.45 220.316 193 220.559 193C220.802 193 221 193.45 221 194ZM211.659 197.554C211.931 198.263 211.611 199.859 210.947 201.1L209.739 203.356L206.857 199.928C204.097 196.645 204.017 196.616 204.965 199.257C205.51 200.773 206.641 203.338 207.478 204.957C209.632 209.123 209.421 210.408 206.875 208.625C205.706 207.806 203.741 204.655 202.508 201.621L200.267 196.107L203.383 195.803C207.83 195.371 211.085 196.059 211.659 197.554ZM199.937 199.809C199.874 202.469 199.862 202.473 198.945 200.186C198.435 198.913 197.563 198.152 197.008 198.495C196.454 198.838 196 198.679 196 198.142C196 197.019 198.139 196.066 199.25 196.694C199.662 196.927 199.971 198.329 199.937 199.809ZM222 198.059C222 198.641 221.618 198.882 221.151 198.594C220.685 198.305 219.726 200.473 219.022 203.41C217.872 208.202 217.928 209.07 219.568 211.845C221.664 215.395 220.791 217.222 218.226 214.65C216.947 213.367 216.529 211.378 216.611 206.96C216.671 203.682 216.535 201 216.309 201C216.082 201 215.413 202.384 214.824 204.076C214.168 205.957 213.393 206.793 212.828 206.228C211.299 204.699 214.189 199.828 217.476 198.396C221.212 196.768 222 196.709 222 198.059ZM225 199.5C225 200.875 224.827 202 224.617 202C224.406 202 224.018 200.875 223.755 199.5C223.492 198.125 223.665 197 224.139 197C224.612 197 225 198.125 225 199.5ZM230 198.941C230 199.459 229.55 200.16 229 200.5C228.45 200.84 228 200.416 228 199.559C228 198.702 228.45 198 229 198C229.55 198 230 198.423 230 198.941ZM51.2791 201.414C52.9671 202.694 52.9691 202.798 51.3101 203.435C50.3481 203.804 49.8991 203.768 50.3121 203.355C50.7251 202.942 50.0361 202.034 48.7811 201.337C47.3751 200.557 47.0751 200.069 48.0001 200.067C48.8251 200.065 50.3011 200.671 51.2791 201.414ZM77.0001 202.51C77.0001 203.572 74.0631 203.608 73.6581 202.55C73.3111 201.646 73.7611 201.386 75.0751 201.73C76.1341 202.007 77.0001 202.358 77.0001 202.51ZM64.0001 202.969C64.0001 203.501 63.3251 203.678 62.5001 203.362C60.4081 202.559 60.6151 204.677 62.7501 205.92C63.7121 206.481 63.9931 206.953 63.3721 206.97C61.7421 207.014 59.7151 204.27 60.4731 203.044C61.2861 201.729 64.0001 201.671 64.0001 202.969ZM69.9211 204.25C69.8681 205.753 69.6531 206.002 69.2711 205C68.9571 204.175 68.2051 203.169 67.6001 202.765C66.9221 202.312 67.1711 202.025 68.2501 202.015C69.4261 202.005 69.9741 202.738 69.9211 204.25ZM223.613 206.566C222.77 208.763 221.691 207.693 221.239 204.212C220.908 201.671 220.993 201.606 222.58 203.172C223.594 204.174 224.009 205.535 223.613 206.566ZM232.104 206.296C230.82 207.58 229.519 206.588 230.469 205.05C230.837 204.455 231.596 204.251 232.156 204.597C232.839 205.019 232.822 205.578 232.104 206.296ZM198 207C198 207.55 197.802 208 197.559 208C197.316 208 196.84 207.55 196.5 207C196.16 206.45 196.359 206 196.941 206C197.523 206 198 206.45 198 207ZM229 210.181C229 211.864 228.734 212.024 227.559 211.049C226.767 210.392 226.364 209.214 226.664 208.433C227.415 206.476 229 207.662 229 210.181ZM246 209C246 209.55 245.802 210 245.559 210C245.316 210 244.84 209.55 244.5 209C244.16 208.45 244.359 208 244.941 208C245.523 208 246 208.45 246 209ZM198.453 211.161C199.854 211.799 201 212.949 201 213.717C201 214.828 200.388 214.751 198 213.341C196.35 212.366 195 211.216 195 210.784C195 209.741 195.445 209.79 198.453 211.161ZM206 216C206 216.55 205.55 217 205 217C204.45 217 204 216.55 204 216C204 215.45 204.45 215 205 215C205.55 215 206 215.45 206 216ZM244.5 216C244.84 216.55 244.641 217 244.059 217C243.477 217 243 216.55 243 216C243 215.45 243.198 215 243.441 215C243.684 215 244.16 215.45 244.5 216ZM21.6361 218.486C23.8251 219.622 26.4231 219.825 32.6541 219.346C40.2551 218.762 40.8991 218.865 42.1451 220.86C42.8801 222.037 44.0891 223 44.8331 223C45.5761 223 47.2681 223.852 48.5911 224.893C51.5001 227.181 50.3771 227.764 43.6831 227.44C40.2791 227.276 39.0001 227.559 39.3251 228.405C40.1411 230.531 26.1751 229.117 23.2711 226.78C22.4141 226.089 22.3381 225.236 23.0211 223.961C24.5051 221.188 24.2801 220.966 20.5881 221.553C16.7911 222.157 15.1521 220.727 17.0361 218.456C18.5051 216.686 18.1631 216.684 21.6361 218.486ZM74.2641 218.732C70.7861 219.045 70.2491 219.353 71.2641 220.452C71.9441 221.188 72.8071 221.604 73.1831 221.377C75.6981 219.858 83.5641 219.337 86.3791 220.503C88.0961 221.213 91.9091 222.506 94.8531 223.374C99.7851 224.829 100.1 224.826 98.8611 223.332C97.6641 221.89 97.7901 221.796 100.008 222.48C103.228 223.473 103.699 223.95 102.308 224.81C100.835 225.72 105.04 230.468 111.306 234.968C113.888 236.822 116 238.713 116 239.17C116 240.27 106.776 240.125 100.5 238.925C93.5151 237.589 78.2561 236.719 75.2131 237.483L72.6761 238.119L75.0881 239.36C76.7821 240.232 85.2691 240.682 103.615 240.874C126.006 241.108 129.811 240.935 130.302 239.656C130.616 238.836 130.227 237.917 129.437 237.614C128.647 237.311 128 237.499 128 238.031C128 239.452 124.267 239.214 123.583 237.75C123.122 236.762 122.875 236.771 122.403 237.792C121.944 238.783 121.48 238.813 120.403 237.919C119.315 237.017 118.993 237.064 118.968 238.128C118.949 238.977 118.067 238.547 116.655 237C115.401 235.625 113.727 234.355 112.937 234.179C112.147 234.002 111.05 233.373 110.5 232.781C109.803 232.032 110.031 231.892 111.25 232.321C113.661 233.17 113.461 231.317 111 230C109.9 229.411 109 228.244 109 227.406C109 226.568 108.55 226.16 108 226.5C107.45 226.84 107 226.641 107 226.059C107 225.477 107.346 225 107.768 225C109.146 225 116 230.046 116 231.061C116 232.172 121.001 234.332 121.777 233.556C122.052 233.281 121.046 232.588 119.542 232.016C118.037 231.444 116.57 230.071 116.281 228.965C115.933 227.634 112.733 225.49 106.816 222.623C98.9651 218.819 97.3801 218.382 93.8011 219.036C91.5591 219.446 88.3281 219.381 86.6191 218.891C83.5391 218.007 82.4471 217.993 74.2641 218.732ZM199.538 220.756C202.267 221.722 205.613 223.297 206.973 224.256C209.222 225.842 209.264 226 207.445 226C206.345 226 204.361 225.24 203.035 224.312C201.419 223.18 200.501 222.997 200.248 223.756C199.542 225.874 194 222.374 194 219.809C194 218.758 193.791 218.722 199.538 220.756ZM191.612 223.531C192.525 224.923 192.978 226.356 192.619 226.714C191.85 227.484 186.803 223.91 186.23 222.189C185.466 219.898 189.967 221.021 191.612 223.531ZM68.8131 222.683C69.5341 222.972 70.3971 222.936 70.7291 222.604C71.0611 222.272 70.4711 222.036 69.4171 222.079C68.2521 222.127 68.0151 222.364 68.8131 222.683ZM214 223.559C214 224.416 213.55 224.84 213 224.5C212.45 224.16 212 223.459 212 222.941C212 222.423 212.45 222 213 222C213.55 222 214 222.702 214 223.559ZM54.5001 224C55.2891 225.277 51.9761 225.277 50.0001 224C48.8271 223.242 49.0861 223.027 51.1911 223.015C52.6711 223.007 54.1601 223.45 54.5001 224ZM222 225.118C222 225.668 221.55 225.84 221 225.5C220.45 225.16 220 224.432 220 223.882C220 223.332 220.45 223.16 221 223.5C221.55 223.84 222 224.568 222 225.118ZM26.0001 226.167C26.0001 226.625 26.3371 227.037 26.7501 227.083C27.1631 227.129 28.5281 227.28 29.7851 227.419C31.3391 227.59 31.7441 227.344 31.0511 226.651C29.7921 225.392 26.0001 225.028 26.0001 226.167ZM203 230C203 230.55 202.325 231 201.5 231C200.675 231 200 230.55 200 230C200 229.45 200.675 229 201.5 229C202.325 229 203 229.45 203 230ZM34.0001 232.139C35.8881 232.753 35.4401 232.866 32.1721 232.598C29.7921 232.404 27.3171 231.708 26.6721 231.051C25.4661 229.824 28.0841 230.212 34.0001 232.139ZM184.093 236.574C180.977 238.289 178.12 239 174.343 239C171.242 239 169 239.445 169 240.061C169 241.352 200.792 241.146 201.593 239.849C201.882 239.382 200.359 239 198.208 239C192.828 239 187.74 237.121 188.407 235.381C188.699 234.621 188.839 234.033 188.719 234.074C188.598 234.115 186.517 235.24 184.093 236.574ZM57.5001 236.892C60.1101 237.289 61.0571 237.786 60.2261 238.324C59.5251 238.777 57.5001 238.873 55.7261 238.536C52.6561 237.954 52.6101 237.989 54.7791 239.263C56.0321 239.999 60.2671 240.711 64.1891 240.846C70.4011 241.06 71.1621 240.9 70.0871 239.605C69.4091 238.788 68.2951 238.333 67.6111 238.596C66.9281 238.858 65.0481 238.384 63.4341 237.542C61.8201 236.701 58.9251 236.073 57.0001 236.148L53.5001 236.284L57.5001 236.892ZM213.235 238.045C209.239 238.367 205.414 239.203 204.735 239.903C203.738 240.931 204.655 241.064 209.5 240.592C217.217 239.841 216.282 239.848 238.5 240.368C257.942 240.823 256.617 239.784 236.215 238.576C230.322 238.227 224.375 237.833 223 237.7C221.625 237.568 217.231 237.723 213.235 238.045ZM140.301 239.051C139.861 239.466 138.6 240.022 137.5 240.287C136.4 240.552 137.863 240.82 140.75 240.884C143.637 240.948 146 240.602 146 240.117C146 238.954 141.332 238.082 140.301 239.051ZM1.50006 240C1.84006 240.55 2.87906 240.993 3.80906 240.985C5.26606 240.971 5.29306 240.835 4.00006 240C2.04206 238.734 0.718058 238.734 1.50006 240ZM153 239.383C153 240.232 158.085 240.671 158.583 239.866C158.877 239.39 157.741 239 156.059 239C154.377 239 153 239.173 153 239.383Z" fill="black"/>
</svg>
